<svg width="1460" height="1461" xmlns="http://www.w3.org/2000/svg" xmlns:xlink="http://www.w3.org/1999/xlink" xml:space="preserve" overflow="hidden"><g transform="translate(-1470 -507)"><path d="M561.492-440.129 827.79-440.129 827.79-509.175 561.492-509.175 561.492-440.129ZM561.492-695.477 1022.3-695.477 1022.3-764.523 561.492-764.523 561.492-695.477ZM437.696-950.825 1022.46-950.825 1022.46-1019.87 437.696-1019.87 437.696-950.825ZM410.017-152.083C337.321-152.083 275.373-177.329 224.171-227.821 172.969-278.313 147.369-340.109 147.369-413.211 147.369-466.542 161.665-514.65 190.256-557.538 218.848-600.425 256.514-632.16 303.254-652.742L152.083-652.742 152.083-721.788 450.471-721.788 450.471-423.4 381.425-423.4 381.425-606.204C334.279-599.615 294.992-578.171 263.56-541.873 232.129-505.677 216.415-463.246 216.415-414.579 216.415-360.539 235.223-314.762 272.838-277.248 310.452-239.734 356.179-220.977 410.017-220.977L410.017-151.931ZM561.492-212.917 561.492-281.963 1159.33-281.963C1164-281.963 1168.3-283.889 1172.26-287.742 1176.11-291.594 1178.04-295.904 1178.04-300.669L1178.04-1159.33C1178.04-1164 1176.11-1168.3 1172.26-1172.26 1168.41-1176.11 1164.1-1178.04 1159.33-1178.04L300.669-1178.04C296.004-1178.04 291.696-1176.11 287.742-1172.26 283.889-1168.41 281.963-1164.1 281.963-1159.33L281.963-832.961 212.917-832.961 212.917-1159.33C212.917-1183.16 221.585-1203.74 238.923-1221.08 256.26-1238.41 276.842-1247.08 300.669-1247.08L1159.33-1247.08C1183.16-1247.08 1203.74-1238.41 1221.08-1221.08 1238.41-1203.74 1247.08-1183.16 1247.08-1159.33L1247.08-300.669C1247.08-276.842 1238.41-256.26 1221.08-238.923 1203.74-221.585 1183.16-212.917 1159.33-212.917L561.492-212.917Z" transform="matrix(1 0 0 1.00068 1470 1968)"/><rect x="2422.5" y="985.5" width="69" height="261" stroke="#000000" stroke-width="4.58333" stroke-miterlimit="8"/><rect x="2228.5" y="1250.5" width="69" height="261" stroke="#000000" stroke-width="4.58333" stroke-miterlimit="8"/></g></svg>